# Blender v2.79 (sub 0) OBJ File: ''
# www.blender.org
mtllib DisplayBezel.mtl
o MeshBody6
v -0.455000 0.027522 -0.095000
v -0.302543 0.027350 -0.092738
v -0.450257 0.026752 -0.099743
v -0.150086 0.027350 -0.092738
v 0.002372 0.027350 -0.092738
v 0.002372 0.024691 -0.086229
v 0.154829 0.024691 -0.086229
v 0.154829 0.019357 -0.081648
v 0.307286 0.019357 -0.081648
v 0.440000 0.012522 -0.080000
v 0.440386 0.015903 -0.080386
v -0.449260 0.026380 -0.089260
v -0.302543 0.024691 -0.086229
v -0.150086 0.024691 -0.086229
v -0.150086 0.019357 -0.081648
v 0.002372 0.019357 -0.081648
v -0.440000 0.012522 -0.080000
v -0.444393 0.023129 -0.084393
v -0.302543 0.019357 -0.081648
v -0.441142 0.018262 -0.081142
v -0.440288 0.015448 -0.080288
v 0.441467 0.018992 -0.081467
v 0.445026 0.023726 -0.085026
v 0.307286 0.024691 -0.086229
v 0.449549 0.026497 -0.089549
v 0.307286 0.027350 -0.092738
v 0.454438 0.027511 -0.094437
v 0.154829 0.027350 -0.092738
v 0.455000 0.027522 -0.095000
v 0.459743 0.026752 -0.099743
v 0.440167 0.014756 0.080000
v 0.440376 0.015858 0.080000
v 0.441648 0.019357 -0.003480
v 0.441713 0.019482 0.081303
v 0.443764 0.022456 0.083313
v 0.446229 0.024691 -0.003480
v 0.448800 0.026179 0.088201
v 0.452738 0.027350 -0.003480
v 0.454082 0.027494 0.092573
v 0.454914 0.027522 0.092783
v 0.455785 0.027501 0.092627
v 0.457149 0.027367 0.091812
v 0.459743 0.026752 0.089571
v 0.440042 0.013642 0.080000
v 0.440000 0.012522 0.080000
v 0.440000 0.010000 0.080000
v 0.440000 0.010000 -0.080000
v -0.440000 0.010000 -0.080000
v -0.459743 0.026752 0.089571
v -0.457801 0.027400 0.091985
v -0.457193 0.027361 0.091779
v -0.455840 0.027498 0.092606
v -0.457088 0.027637 0.094473
v -0.454968 0.027522 0.092784
v -0.328388 0.027637 0.094473
v -0.454113 0.027496 0.092586
v -0.328388 0.026100 0.088033
v -0.448904 0.026227 0.088299
v -0.443838 0.022542 0.083385
v -0.328388 0.021896 0.082848
v -0.441771 0.019585 0.081360
v -0.440376 0.015858 0.080000
v -0.197033 0.021896 0.082848
v -0.065678 0.021896 0.082848
v -0.065678 0.026100 0.088033
v 0.065678 0.026100 0.088033
v 0.065678 0.027637 0.094473
v 0.197033 0.027637 0.094473
v 0.459394 0.026869 0.099394
v 0.328388 0.027637 0.094473
v 0.457624 0.027459 0.096965
v 0.457088 0.027637 0.094473
v -0.457624 0.027459 0.096965
v -0.197033 0.027637 0.094473
v -0.197033 0.026100 0.088033
v -0.459394 0.026869 0.099394
v -0.065678 0.027637 0.094473
v 0.457801 0.027400 0.091985
v 0.328388 0.026100 0.088033
v 0.328388 0.021896 0.082848
v 0.197033 0.021896 0.082848
v 0.065678 0.021896 0.082848
v 0.197033 0.026100 0.088033
v -0.459743 0.026752 -0.099743
v -0.480000 0.020000 -0.120000
v -0.480000 0.020000 0.120000
v -0.440167 0.014756 0.080000
v -0.440071 0.013980 -0.003480
v -0.442182 0.020313 -0.003480
v -0.446832 0.025103 -0.003480
v -0.453099 0.027401 -0.003480
v -0.440042 0.013642 0.080000
v -0.440000 0.012522 0.080000
v -0.457403 0.027328 -0.098015
v -0.452597 0.027328 -0.098015
v -0.455000 0.027522 -0.097434
v -0.440000 0.010000 0.080000
v 0.480000 0.020000 0.120000
v 0.480000 0.020000 -0.120000
v -0.480000 0.000000 -0.120000
v -0.480000 -0.000000 0.120000
v 0.480000 0.000000 -0.120000
v 0.480000 -0.000000 0.120000
vt 0.615556 0.973940
vt 0.612497 0.815132
vt 0.621982 0.969001
vt 0.612497 0.656323
vt 0.612497 0.497513
vt 0.603719 0.497519
vt 0.603719 0.338710
vt 0.940139 0.302288
vt 0.940139 0.461097
vt 0.932046 0.302288
vt 0.932046 0.143479
vt 0.922564 0.005236
vt 0.927164 0.004834
vt 0.607802 0.967964
vt 0.603719 0.815137
vt 0.603719 0.656328
vt 0.940139 0.619907
vt 0.940139 0.778716
vt 0.932046 0.619908
vt 0.932046 0.461097
vt 0.922564 0.921901
vt 0.601252 0.962900
vt 0.937665 0.926477
vt 0.932046 0.778717
vt 0.930476 0.923090
vt 0.926535 0.922201
vt 0.931520 0.003708
vt 0.938596 0.000000
vt 0.940139 0.143479
vt 0.603719 0.179901
vt 0.602102 0.036424
vt 0.608191 0.031707
vt 0.612497 0.179896
vt 0.614794 0.026613
vt 0.612497 0.338705
vt 0.615556 0.026027
vt 0.621982 0.021088
vt 0.993591 0.671910
vt 0.992075 0.671910
vt 0.987156 0.584951
vt 0.986977 0.673266
vt 0.982625 0.675357
vt 0.979191 0.584945
vt 0.491758 0.035171
vt 0.374349 0.037744
vt 0.367695 0.032491
vt 0.491729 0.028385
vt 0.361765 0.026987
vt 0.361481 0.026120
vt 0.361692 0.025213
vt 0.362796 0.023792
vt 0.365835 0.021091
vt 0.980698 0.500003
vt 0.987678 0.503715
vt 0.992013 0.504842
vt 0.995107 0.671910
vt 0.996617 0.505244
vt 0.996617 0.671910
vt 1.000000 0.671910
vt 1.000000 0.505243
vt 0.919193 0.921901
vt 0.919193 0.005236
vt 0.365835 0.978885
vt 0.362562 0.976861
vt 0.362841 0.976228
vt 0.361721 0.974818
vt 0.359193 0.976118
vt 0.361480 0.973910
vt 0.359193 0.842056
vt 0.361748 0.973019
vt 0.367923 0.842059
vt 0.367562 0.967596
vt 0.374251 0.962326
vt 0.374984 0.842067
vt 0.957682 0.000000
vt 0.956698 0.120260
vt 0.953214 0.002153
vt 0.947905 0.003607
vt 0.956717 0.257088
vt 0.956737 0.393916
vt 0.374984 0.568412
vt 0.374984 0.705240
vt 0.367923 0.568404
vt 0.367923 0.431575
vt 0.359193 0.431572
vt 0.359193 0.294745
vt 0.352543 0.021455
vt 0.359193 0.157917
vt 0.355823 0.023297
vt 0.359193 0.023855
vt 0.355823 0.976677
vt 0.359193 0.705229
vt 0.367923 0.705231
vt 0.352543 0.978522
vt 0.359193 0.568401
vt 0.362562 0.023113
vt 0.367923 0.157920
vt 0.374984 0.157928
vt 0.956796 0.804401
vt 0.957682 0.924584
vt 0.953195 0.922448
vt 0.956777 0.667573
vt 0.956757 0.530745
vt 0.374984 0.294756
vt 0.374984 0.431583
vt 0.367923 0.294748
vt 0.948037 0.921055
vt 0.621982 0.978882
vt 0.649463 0.999996
vt 0.324737 1.000000
vt 0.972785 0.503529
vt 0.973843 0.590487
vt 0.971269 0.503529
vt 0.964964 0.590487
vt 0.966015 0.502112
vt 0.961669 0.500003
vt 0.957682 0.590487
vt 0.491753 0.965438
vt 0.491729 0.971962
vt 0.974301 0.503529
vt 0.975810 0.670195
vt 0.971835 0.670495
vt 0.975810 0.503529
vt 0.967905 0.671385
vt 0.960780 0.674771
vt 0.619638 0.976444
vt 0.619638 0.971438
vt 0.618849 0.973940
vt 0.946444 0.003825
vt 0.946576 0.920838
vt 0.944967 0.003955
vt 0.945099 0.920708
vt 0.943482 0.003999
vt 0.943615 0.920664
vt 0.940139 0.003999
vt 0.940271 0.920664
vt 0.649463 0.000003
vt 0.865947 0.000000
vt 0.649463 0.916666
vt 0.865947 0.916663
vt 0.979191 0.670195
vt 0.979191 0.503529
vt 0.324737 0.000004
vt 0.649463 0.000000
vt 0.957682 0.000004
vt 0.984511 0.000000
vt 0.957682 0.250003
vt 0.984511 0.249999
vt 0.919193 0.000000
vt 0.919193 0.999998
vt 0.892680 0.000001
vt 0.892680 1.000000
vt 0.324737 0.999998
vt 0.000000 0.999998
vt 0.324737 0.000000
vt 0.000000 0.000000
vt 0.984489 0.500003
vt 0.957682 0.500003
vt 0.984489 0.250003
vt 0.957682 0.250003
vt 0.892680 0.000000
vt 0.892680 0.999999
vt 0.865947 0.000000
vt 0.865947 0.999998
vn 0.0034 0.9876 -0.1569
vn 0.0000 0.9964 -0.0851
vn 0.0000 0.9257 0.3782
vn 0.0000 0.6515 0.7586
vn 0.0000 0.2344 0.9721
vn -0.0065 0.1142 0.9934
vn -0.0018 0.9804 0.1969
vn 0.0028 0.9257 0.3782
vn -0.0019 0.8307 0.5568
vn 0.0026 0.6515 0.7586
vn -0.0013 0.5548 0.8320
vn 0.0012 0.2907 0.9568
vn 0.0070 0.0986 0.9951
vn -0.0004 0.3304 0.9438
vn 0.0006 0.6007 0.7995
vn -0.0021 0.6515 0.7586
vn 0.0014 0.8521 0.5234
vn -0.0029 0.9257 0.3782
vn 0.0013 0.9789 0.2044
vn 0.0000 0.9955 0.0943
vn -0.0004 0.9998 0.0191
vn -0.0007 0.9998 -0.0217
vn 0.0000 0.9871 -0.1602
vn -0.9825 0.1863 -0.0072
vn -0.9382 0.3460 0.0002
vn -0.8231 0.5678 -0.0002
vn -0.7586 0.6515 -0.0048
vn -0.5968 0.8024 0.0037
vn -0.3782 0.9257 -0.0044
vn -0.2431 0.9700 0.0019
vn -0.0870 0.9962 -0.0003
vn -0.0336 0.9994 -0.0000
vn 0.0241 0.9997 0.0000
vn 0.0976 0.9952 -0.0003
vn 0.1593 0.9872 -0.0010
vn 0.2307 0.9730 0.0000
vn -0.0181 0.9998 0.0014
vn -0.2051 0.9787 -0.0021
vn -0.3782 0.9257 0.0048
vn -0.5241 0.8516 -0.0023
vn -0.7586 0.6515 0.0035
vn -0.7996 0.6005 -0.0010
vn -0.9438 0.3305 0.0006
vn -0.9540 0.2999 0.0022
vn -0.9936 0.1134 -0.0005
vn -0.9993 0.0374 0.0000
vn -0.9937 0.1115 -0.0115
vn -1.0000 0.0000 0.0000
vn 0.0000 0.0000 1.0000
vn -0.0204 0.9696 -0.2438
vn 0.0051 0.9852 -0.1715
vn -0.0217 0.9958 -0.0886
vn -0.0108 0.9966 -0.0814
vn 0.0000 0.9977 -0.0679
vn 0.0008 0.9919 -0.1268
vn 0.0024 0.9727 -0.2321
vn 0.0004 0.9590 -0.2834
vn -0.0005 0.7998 -0.6003
vn 0.0014 0.7768 -0.6298
vn -0.0007 0.5647 -0.8253
vn 0.0053 0.3445 -0.9388
vn 0.0000 0.4266 -0.9044
vn 0.0000 0.7768 -0.6298
vn 0.0000 0.9727 -0.2321
vn 0.0000 0.9880 0.1542
vn -0.0033 0.9712 0.2383
vn 0.0000 0.9975 0.0712
vn 0.0000 0.9717 0.2360
vn 0.0003 0.9927 0.1210
vn 0.0217 0.9958 -0.0887
vn 0.0097 0.9967 -0.0802
vn -0.0008 0.9916 -0.1290
vn -0.0024 0.9727 -0.2321
vn -0.0002 0.9577 -0.2878
vn 0.0003 0.7954 -0.6061
vn 0.0165 0.9689 -0.2468
vn -0.0048 0.9854 -0.1700
vn -0.0012 0.7768 -0.6298
vn 0.0006 0.5597 -0.8287
vn 0.0000 0.5391 -0.8423
vn 0.0000 0.3383 -0.9410
vn -0.0006 0.4687 -0.8834
vn -0.3162 0.9487 0.0000
vn -0.3163 0.9487 -0.0001
vn -0.3165 0.9486 -0.0001
vn -0.3153 0.9490 -0.0000
vn 0.9825 0.1864 -0.0006
vn 0.9487 0.3162 -0.0036
vn 0.9364 0.3510 -0.0015
vn 0.8199 0.5725 0.0009
vn 0.7175 0.6965 -0.0042
vn 0.5904 0.8071 0.0034
vn 0.3443 0.9389 -0.0037
vn 0.2379 0.9713 0.0016
vn 0.0302 0.9995 -0.0007
vn -0.0271 0.9996 -0.0018
vn -0.1831 0.9831 -0.0062
vn 0.1975 0.8625 -0.4660
vn 0.9938 0.1115 0.0001
vn 0.9985 0.0552 -0.0001
vn 0.9952 0.0979 -0.0009
vn 0.9993 0.0374 0.0000
vn 0.9567 0.2912 0.0029
vn 0.9487 0.3162 0.0044
vn 0.8326 0.5538 -0.0035
vn 0.7175 0.6965 0.0046
vn 0.5578 0.8300 -0.0034
vn 0.3443 0.9389 0.0042
vn 0.1978 0.9802 -0.0028
vn -0.0843 0.9964 0.0031
vn -0.0661 0.9978 0.0022
vn -0.2390 0.9710 0.0000
vn 0.4177 0.8652 0.2773
vn 0.0805 0.9968 0.0000
vn -0.0805 0.9968 0.0000
vn 0.0000 0.0000 -1.0000
vn 0.0000 1.0000 0.0000
vn 1.0000 0.0000 0.0000
vn 0.0000 0.9487 0.3162
vn 0.0000 0.9487 -0.3162
vn 0.0000 0.9485 -0.3167
vn 0.3165 0.9486 -0.0001
vn 0.3163 0.9487 -0.0001
vn 0.3162 0.9487 0.0000
vn 0.3153 0.9490 -0.0000
vn 0.0000 -1.0000 -0.0000
usemtl Paint_-_Enamel_Glossy_(Red)
s off
f 1/1/1 2/2/1 3/3/1
f 3/3/2 2/2/2 4/4/2
f 3/3/2 4/4/2 5/5/2
f 5/5/3 4/4/3 6/6/3
f 5/5/3 6/6/3 7/7/3
f 7/8/4 6/9/4 8/10/4
f 7/8/4 8/10/4 9/11/4
f 9/11/5 8/10/5 10/12/5
f 9/11/6 10/12/6 11/13/6
f 1/1/7 12/14/7 2/2/7
f 2/2/8 12/14/8 13/15/8
f 2/2/3 13/15/3 14/16/3
f 14/17/4 13/18/4 15/19/4
f 14/17/4 15/19/4 16/20/4
f 16/20/5 15/19/5 17/21/5
f 16/20/5 17/21/5 10/12/5
f 12/14/9 18/22/9 13/15/9
f 13/18/10 18/23/10 19/24/10
f 13/18/4 19/24/4 15/19/4
f 15/19/5 19/24/5 17/21/5
f 18/23/11 20/25/11 19/24/11
f 19/24/12 20/25/12 21/26/12
f 19/24/13 21/26/13 17/21/13
f 11/13/14 22/27/14 9/11/14
f 9/11/15 22/27/15 23/28/15
f 9/11/16 23/28/16 24/29/16
f 24/30/17 23/31/17 25/32/17
f 24/30/18 25/32/18 26/33/18
f 26/33/19 25/32/19 27/34/19
f 26/33/20 27/34/20 28/35/20
f 28/35/21 27/34/21 29/36/21
f 28/35/22 29/36/22 3/3/22
f 3/3/23 29/36/23 30/37/23
f 28/35/2 3/3/2 5/5/2
f 6/6/3 4/4/3 14/16/3
f 14/16/3 4/4/3 2/2/3
f 24/30/3 26/33/3 28/35/3
f 24/30/3 28/35/3 7/7/3
f 7/7/3 28/35/3 5/5/3
f 8/10/4 6/9/4 16/20/4
f 16/20/4 6/9/4 14/17/4
f 9/11/4 24/29/4 7/8/4
f 10/12/5 8/10/5 16/20/5
f 31/38/24 32/39/24 33/40/24
f 33/40/25 32/39/25 34/41/25
f 33/40/26 34/41/26 35/42/26
f 33/40/27 35/42/27 36/43/27
f 36/44/28 35/45/28 37/46/28
f 36/44/29 37/46/29 38/47/29
f 38/47/30 37/46/30 39/48/30
f 38/47/31 39/48/31 29/36/31
f 29/36/32 39/48/32 40/49/32
f 29/36/33 40/49/33 41/50/33
f 41/50/34 42/51/34 29/36/34
f 29/36/35 42/51/35 30/37/35
f 30/37/36 42/51/36 43/52/36
f 29/36/37 27/34/37 38/47/37
f 38/47/38 27/34/38 25/32/38
f 38/47/39 25/32/39 36/44/39
f 36/44/40 25/32/40 23/31/40
f 36/43/41 23/53/41 33/40/41
f 33/40/42 23/53/42 22/54/42
f 33/40/43 22/54/43 11/55/43
f 33/40/44 11/55/44 44/56/44
f 44/56/45 11/55/45 10/57/45
f 44/56/46 10/57/46 45/58/46
f 44/56/47 31/38/47 33/40/47
f 45/58/48 10/57/48 46/59/48
f 46/59/48 10/57/48 47/60/48
f 17/21/49 48/61/49 10/12/49
f 10/12/49 48/61/49 47/62/49
f 49/63/50 50/64/50 51/65/50
f 51/65/51 50/64/51 52/66/51
f 52/66/52 50/64/52 53/67/52
f 52/66/53 53/67/53 54/68/53
f 54/68/54 53/67/54 55/69/54
f 54/68/55 55/69/55 56/70/55
f 56/70/56 55/69/56 57/71/56
f 56/70/57 57/71/57 58/72/57
f 58/72/58 57/71/58 59/73/58
f 59/73/59 57/71/59 60/74/59
f 59/75/60 60/76/60 61/77/60
f 61/77/61 60/76/61 62/78/61
f 62/78/62 60/76/62 63/79/62
f 62/78/62 63/79/62 64/80/62
f 64/81/63 63/82/63 65/83/63
f 64/81/63 65/83/63 66/84/63
f 66/84/64 65/83/64 67/85/64
f 66/84/64 67/85/64 68/86/64
f 68/86/65 67/85/65 69/87/65
f 68/86/65 69/87/65 70/88/65
f 70/88/66 69/87/66 71/89/66
f 70/88/67 71/89/67 72/90/67
f 53/67/67 73/91/67 55/69/67
f 55/69/67 73/91/67 74/92/67
f 55/69/64 74/92/64 57/71/64
f 57/71/64 74/92/64 75/93/64
f 57/71/63 75/93/63 60/74/63
f 60/74/63 75/93/63 63/82/63
f 76/94/68 69/87/68 73/91/68
f 73/91/69 69/87/69 77/95/69
f 73/91/67 77/95/67 74/92/67
f 74/92/64 77/95/64 75/93/64
f 78/96/70 41/50/70 72/90/70
f 72/90/71 41/50/71 40/49/71
f 72/90/54 40/49/54 70/88/54
f 70/88/72 40/49/72 39/48/72
f 70/88/73 39/48/73 79/97/73
f 79/97/74 39/48/74 37/46/74
f 79/97/75 37/46/75 35/45/75
f 43/52/76 42/51/76 78/96/76
f 78/96/77 42/51/77 41/50/77
f 79/97/78 35/45/78 80/98/78
f 80/99/79 35/100/79 34/101/79
f 80/99/80 34/101/80 81/102/80
f 81/102/80 34/101/80 82/103/80
f 81/104/63 82/105/63 83/106/63
f 83/106/63 82/105/63 66/84/63
f 83/106/64 66/84/64 68/86/64
f 32/107/81 62/78/81 34/101/81
f 34/101/82 62/78/82 82/103/82
f 68/86/64 70/88/64 83/106/64
f 83/106/64 70/88/64 79/97/64
f 83/106/63 79/97/63 81/104/63
f 81/104/63 79/97/63 80/98/63
f 64/81/63 66/84/63 82/105/63
f 67/85/64 65/83/64 77/95/64
f 77/95/64 65/83/64 75/93/64
f 75/93/63 65/83/63 63/82/63
f 69/87/65 67/85/65 77/95/65
f 62/78/62 64/80/62 82/103/62
f 84/108/83 85/109/83 49/63/83
f 49/63/83 85/109/83 86/110/83
f 49/63/84 86/110/84 76/94/84
f 49/63/85 76/94/85 50/64/85
f 50/64/83 76/94/83 73/91/83
f 50/64/86 73/91/86 53/67/86
f 87/111/87 88/112/87 62/113/87
f 62/113/88 88/112/88 89/114/88
f 62/113/89 89/114/89 61/115/89
f 61/115/90 89/114/90 59/116/90
f 59/116/91 89/114/91 90/117/91
f 59/73/92 90/118/92 58/72/92
f 58/72/93 90/118/93 91/119/93
f 58/72/94 91/119/94 56/70/94
f 56/70/95 91/119/95 54/68/95
f 54/68/96 91/119/96 52/66/96
f 52/66/97 91/119/97 49/63/97
f 52/66/98 49/63/98 51/65/98
f 87/111/99 92/120/99 88/112/99
f 88/112/100 92/120/100 17/121/100
f 88/112/101 17/121/101 21/122/101
f 92/120/102 93/123/102 17/121/102
f 21/122/103 20/124/103 88/112/103
f 88/112/104 20/124/104 89/114/104
f 20/124/105 18/125/105 89/114/105
f 89/114/106 18/125/106 90/117/106
f 18/22/107 12/14/107 90/118/107
f 90/118/108 12/14/108 91/119/108
f 12/14/109 1/1/109 91/119/109
f 91/119/110 1/1/110 94/126/110
f 91/119/111 94/126/111 49/63/111
f 49/63/112 94/126/112 84/108/112
f 3/3/113 95/127/113 1/1/113
f 1/1/114 95/127/114 96/128/114
f 1/1/115 96/128/115 94/126/115
f 62/78/116 32/107/116 87/129/116
f 87/129/116 32/107/116 31/130/116
f 87/129/116 31/130/116 92/131/116
f 92/131/116 31/130/116 44/132/116
f 92/131/116 44/132/116 93/133/116
f 93/133/116 44/132/116 45/134/116
f 93/133/116 45/134/116 97/135/116
f 97/135/116 45/134/116 46/136/116
f 46/137/117 47/138/117 97/139/117
f 97/139/117 47/138/117 48/140/117
f 17/121/118 93/123/118 48/141/118
f 48/141/118 93/123/118 97/142/118
f 69/87/119 76/94/119 98/143/119
f 98/143/119 76/94/119 86/110/119
f 30/37/120 99/144/120 3/3/120
f 3/3/120 99/144/120 85/109/120
f 3/3/120 85/109/120 84/108/120
f 3/3/120 84/108/120 95/127/120
f 95/127/120 84/108/120 94/126/120
f 95/127/121 94/126/121 96/128/121
f 78/96/122 69/87/122 43/52/122
f 43/52/123 69/87/123 98/143/123
f 43/52/124 98/143/124 99/144/124
f 72/90/125 71/89/125 78/96/125
f 78/96/124 71/89/124 69/87/124
f 99/144/124 30/37/124 43/52/124
f 85/145/48 100/146/48 86/147/48
f 86/147/48 100/146/48 101/148/48
f 85/149/116 99/150/116 100/151/116
f 100/151/116 99/150/116 102/152/116
f 101/153/126 100/154/126 103/155/126
f 103/155/126 100/154/126 102/156/126
f 98/157/118 103/158/118 99/159/118
f 99/159/118 103/158/118 102/160/118
f 98/161/49 86/162/49 103/163/49
f 103/163/49 86/162/49 101/164/49
